# xmcd
#
# Track frame offsets:
# 150
# 15755
# 28100
# 38857
# 49995
# 60297
# 71800
# 86737
# 101572
# 115730
# 132167
# 147752
#
# Disc length: 2136 seconds
#
#
# Revision: 0
# Processed by: cddbd v1.5.1PL0 Copyright (c) Steve Scherf et al.
# Submitted via: FreeRIP 2.80 
#
DISCID=9b08560c
DTITLE=ливакгс цеммгтсаягс - емас яелпетгс тяацоуда
DYEAR=1900
DGENRE=
TTITLE0=йаяамтоуфеми
TTITLE1=о ламыкгс
TTITLE2=о лацйас
TTITLE3=паки елпкенес ле акком ('ЖЫМч бОЩКА цЙъЙА)
TTITLE4=о сумавгс (лэЯЙОР бАЛБАЙэЯГР)
TTITLE5=бафы упоьгжиотгта (лэЯЙОР бАЛБАЙэЯГР)
TTITLE6=ха сактаяы ('ЖЫМч бОЩКА цЙъЙА)
TTITLE7=ха 'яхы мувта ('ЖЫМч бОЩКА цЙъЙА)
TTITLE8=ейамес тг жицоуяа соу
TTITLE9=то лпоуфоуйи лоу ха спасы
TTITLE10=ыяаиа хессакомийиа
TTITLE11=евеис йати
EXTD=
EXTT0=
EXTT1=
EXTT2=
EXTT3=
EXTT4=
EXTT5=
EXTT6=
EXTT7=
EXTT8=
EXTT9=
EXTT10=
EXTT11=
PLAYORDER=
